<svg width="80" height="80" viewBox="0 0 80 80" fill="none" xmlns="http://www.w3.org/2000/svg">
<path d="M16.2135 60.9208C13.8882 60.8142 11.8366 60.4693 9.86686 59.8577C7.6233 59.1608 5.45086 58.0693 3.6802 56.7467C3.09708 56.3129 2.41797 55.7582 2.41797 55.7155C2.41797 55.6977 2.71664 55.328 3.08286 54.8906C4.75397 52.896 5.24108 52.3164 5.9273 51.495C6.33264 51.008 6.7913 50.4604 6.94775 50.2755C7.1042 50.0906 7.23575 49.9342 7.2393 49.927C7.24286 49.92 7.44553 50.0622 7.6873 50.2435C10.2758 52.1742 12.9779 53.28 15.9468 53.6249C16.4837 53.6852 18.2722 53.6852 18.6668 53.6249C19.7015 53.4613 20.4802 53.0773 20.8358 52.5546C21.0633 52.2239 21.1379 51.9573 21.1345 51.4844C21.1309 50.9333 21.0597 50.7413 20.7327 50.4142C20.2206 49.9093 19.4455 49.6533 16.0002 48.8533C13.0135 48.1635 11.4171 47.7083 9.95575 47.1324C9.30153 46.8729 8.12464 46.2968 7.66241 46.0052C5.42241 44.6044 4.27753 42.8444 3.93974 40.2844C3.8722 39.7688 3.88286 38.2719 3.96108 37.7067C4.4802 33.8595 6.8873 31.0506 10.8197 29.7031C12.0109 29.2942 13.2945 29.0452 14.7522 28.9386C15.9397 28.8533 18.1442 28.928 19.5024 29.1057C22.546 29.4968 25.2837 30.4888 27.6589 32.0604C28.1745 32.3982 28.9353 32.9564 29.0099 33.0452C29.042 33.0844 28.6117 33.7173 26.9299 36.0924C25.7637 37.7422 24.7824 39.1218 24.7468 39.1573C24.6864 39.2213 24.6722 39.2142 24.2989 38.9582C23.4135 38.3501 22.2899 37.735 21.2802 37.3049C18.6348 36.1742 15.5842 35.808 14.0162 36.4337C12.9745 36.8462 12.5015 37.7137 12.7646 38.7377C12.9068 39.2995 13.2411 39.655 13.9558 40.0035C14.6989 40.3662 15.7406 40.6577 18.3114 41.2267C20.5655 41.7244 21.8455 42.0622 23.0864 42.4852C26.5815 43.68 28.5655 45.2657 29.4189 47.5483C29.9024 48.8426 30.0446 50.5173 29.8135 52.1955C29.4189 55.0435 27.9433 57.3368 25.5184 58.8693C25.074 59.1501 24.1176 59.6301 23.5914 59.8364C22.2224 60.3733 20.7646 60.7004 19.0224 60.8568C18.4499 60.9067 16.7504 60.9457 16.2135 60.9208Z" fill="#D4D4D4"/>
<path d="M34.0625 44.9244V29.4399H38.4181H42.7736V44.9244V60.4089H38.4181H34.0625V44.9244Z" fill="#D4D4D4"/>
<path d="M69.9127 57.5574C71.0327 55.9858 72.1705 54.3894 72.4443 54.0089L72.942 53.312L75.4381 56.8463C76.814 58.7876 77.9376 60.3841 77.9376 60.3948C77.9376 60.4018 75.6727 60.4089 72.9065 60.4089H67.8789L69.9127 57.5574Z" fill="#D4D4D4"/>
<path d="M50.8338 36.5013C48.1031 32.6365 45.8667 29.4684 45.8667 29.4578C45.8667 29.4471 48.16 29.4399 50.9618 29.4399H56.0534L58.4854 32.8781C59.8223 34.7698 60.9174 36.3306 60.9174 36.352C60.9174 36.3947 55.8649 43.4951 55.8259 43.5129C55.8116 43.5165 53.5644 40.3627 50.8338 36.5013Z" fill="#D4D4D4"/>
<path d="M23.2427 24.9955C22.617 24.928 22.169 24.7716 21.9876 24.5582C21.849 24.3947 21.7388 24.1316 21.6642 23.7867C21.6073 23.5235 21.6001 23.2995 21.6001 21.9911C21.6001 20.6898 21.6073 20.4657 21.6606 20.256C21.7814 19.7937 21.9699 19.5235 22.2934 19.36C22.7734 19.1147 23.6552 19.015 24.6827 19.0862C25.529 19.1467 25.8845 19.2391 26.0873 19.456C26.265 19.648 26.3824 20.0782 26.3824 20.5617V20.8H26.0801H25.7779V20.5937C25.7779 20.3449 25.6961 20.0071 25.6001 19.8755C25.4508 19.6657 25.0348 19.5911 24.0073 19.5911C23.0152 19.5947 22.5993 19.6835 22.4037 19.9324C22.2152 20.1706 22.1548 20.7075 22.1548 22.0622C22.1512 23.4631 22.2224 23.9537 22.4534 24.1991C22.6704 24.4267 23.2073 24.5119 24.2952 24.4906C25.5361 24.4622 25.6783 24.3698 25.785 23.52C25.8063 23.328 25.8134 23.0684 25.7957 22.8871L25.7708 22.5778H24.8321H23.8934V22.3288V22.0799H25.1414H26.3894L26.3717 22.944C26.3326 24.7964 26.1548 24.9671 24.249 25.0098C23.8686 25.0204 23.417 25.0134 23.2427 24.9955Z" fill="#D4D4D4"/>
<path d="M39.584 24.9956C38.7343 24.9138 38.3361 24.6828 38.144 24.1636C38.0658 23.9468 38.0658 23.9432 38.0517 21.5397L38.041 19.129H38.3432H38.6455L38.6561 21.433C38.6703 23.5556 38.6738 23.7476 38.7379 23.9397C38.8907 24.4232 39.065 24.4801 40.3379 24.4801C41.3583 24.4801 41.5894 24.4445 41.785 24.2597C42.0303 24.025 42.0623 23.6836 42.0623 21.1663V19.129H42.3681H42.6703L42.6561 21.4507C42.6454 23.4845 42.6348 23.7974 42.5814 24.0001C42.4214 24.6117 42.144 24.8356 41.3868 24.9601C41.0668 25.0099 39.9787 25.0348 39.584 24.9956Z" fill="#D4D4D4"/>
<path d="M55.6659 24.9956C54.9618 24.928 54.4747 24.7503 54.3075 24.4979C54.1831 24.3094 54.0872 24.0036 54.0196 23.5628C53.9378 23.0365 53.9272 20.6152 54.0054 20.3023C54.208 19.488 54.681 19.1859 55.9182 19.0862C56.7752 19.0187 57.7849 19.129 58.1938 19.3352C58.6382 19.5628 58.8125 20.0677 58.88 21.3156C58.9192 22.0765 58.8765 23.1787 58.7911 23.7049C58.6525 24.5477 58.4107 24.7965 57.5716 24.9423C57.2018 25.0098 56.1067 25.0383 55.6659 24.9956ZM57.408 24.4446C57.8205 24.3734 58.0231 24.2703 58.1085 24.0997C58.2543 23.8046 58.2898 23.3849 58.2898 21.9556C58.2934 20.4765 58.2756 20.2846 58.0978 20.0036C57.9023 19.6943 57.4934 19.5947 56.441 19.5912C55.3636 19.5912 54.8267 19.7192 54.7093 20.0108C54.5813 20.3308 54.56 20.6436 54.56 22.0979C54.5636 23.6054 54.5885 23.8792 54.7485 24.1565C54.8267 24.288 55.0969 24.409 55.4347 24.4552C55.8259 24.5121 57.056 24.5049 57.408 24.4446Z" fill="#D4D4D4"/>
<path d="M29.9023 22.0409V19.1254L31.602 19.136C33.2517 19.1467 33.305 19.1503 33.5361 19.2285C33.9877 19.3813 34.2259 19.6587 34.3326 20.1636C34.4073 20.5049 34.3823 21.3654 34.2971 21.6462C34.2189 21.8952 34.0374 22.0906 33.7957 22.1903C33.561 22.2862 33.5361 22.3752 33.7281 22.4356C33.913 22.4996 34.1122 22.6916 34.2081 22.9085C34.2899 23.0862 34.2935 23.1396 34.3041 24.0285L34.3184 24.96H34.0126H33.7068V24.2773C33.7068 23.5306 33.6712 23.2106 33.5646 23.0044C33.4722 22.8267 33.273 22.6631 33.081 22.6169C32.985 22.5921 32.4766 22.5778 31.7371 22.5778H30.5423V23.769V24.96H30.2223H29.9023V22.0409ZM32.7859 22.048C33.2161 22.0018 33.369 21.9521 33.529 21.8098C33.7389 21.6178 33.7957 21.4152 33.7922 20.8534C33.7922 20.2916 33.7246 20.0249 33.5468 19.8542C33.3441 19.6658 33.241 19.6516 31.833 19.6373L30.5423 19.6231V20.8498V22.08H31.513C32.0428 22.08 32.6189 22.0658 32.7859 22.048Z" fill="#D4D4D4"/>
<path d="M46.4355 22.0445V19.129H47.9751C49.6569 19.129 49.8346 19.1468 50.2044 19.3317C50.4497 19.4597 50.6062 19.6623 50.7093 19.993C50.7804 20.2205 50.791 20.3236 50.791 20.9068C50.791 21.6356 50.7555 21.8169 50.5635 22.1228C50.3857 22.4036 50.0728 22.5494 49.5253 22.6135C49.3618 22.6312 48.7431 22.649 48.1528 22.649H47.0755V23.8045V24.9601H46.7555H46.4355V22.0445ZM49.7138 22.0161C50.119 21.881 50.2221 21.6463 50.2187 20.8712C50.2151 20.0641 50.1226 19.8259 49.7671 19.7086C49.6106 19.6587 49.3902 19.6481 48.3306 19.6338L47.0755 19.6232V20.8712V22.1228L48.2772 22.1086C49.3972 22.0943 49.4897 22.0872 49.7138 22.0161Z" fill="#D4D4D4"/>
<path d="M45.8562 60.3662C45.8775 60.3413 48.8357 56.192 52.4339 51.1466C66.3895 31.5733 67.8082 29.5858 67.8685 29.5147L67.929 29.4399L72.9282 29.4471L77.9308 29.4578L72.441 37.152L66.9513 44.8462L67.1575 45.1342C67.2677 45.2906 68.3948 46.8871 69.6606 48.6755L71.961 51.9253L71.8437 52.0889C71.7797 52.1778 70.4215 54.0835 68.8215 56.3306L65.9131 60.4089H55.8685C47.8366 60.4089 45.8313 60.3982 45.8562 60.3662Z" fill="#D4D4D4"/>
</svg>
